<?xml version="1.0" encoding="utf-8"?>
<!-- Generator: Adobe Illustrator 27.5.0, SVG Export Plug-In . SVG Version: 6.00 Build 0)  -->
<svg version="1.1" id="Layer_1" xmlns="http://www.w3.org/2000/svg" xmlns:xlink="http://www.w3.org/1999/xlink" x="0px" y="0px"
	 viewBox="0 0 768 768" style="enable-background:new 0 0 768 768;" xml:space="preserve">
<style type="text/css">
	.st0{fill:#005581;}
	.st1{fill:#2A9CD4;}
	.st2{fill:#231F20;}
</style>
<path class="st0" d="M329.4,364.8c2.8-0.3,5.2-1,7.5-2c5.5-2.5,9.4-7,12-12.6c-4.2,8.9-11.6,15.1-23.9,14.7
	C326.6,365,328.1,364.9,329.4,364.8"/>
<path class="st1" d="M509.6,197.3c25.2,0,46.6,12.9,57.6,34.7l49.1-32.3c-21.7-39.9-61.5-65.3-106.7-65.3c-3.9,0-8.2-0.1-12,0.3
	l-17.3,48l-9.2,25.6C481.9,201.3,494.8,197.3,509.6,197.3"/>
<path class="st1" d="M408.9,374.7c-0.1,0.3-0.3,0.6-0.4,0.9c23.2,31.5,59.3,52.3,100.8,52.3c45.5,0,85.4-25.4,106.7-65.3L567,330.2
	c-10.7,21.8-32.4,34.7-57.6,34.7c-38.4,0-64.7-25.5-70.9-65.4L418.4,355C415.6,362,412.4,368.6,408.9,374.7"/>
<path class="st2" d="M392.9,134.6l-2,9.9l-38.3,194.1c-0.4,1.8-0.8,3.6-1.3,5.3c-0.1,0.2-0.1,0.5-0.2,0.7c-0.6,1.8-1.3,3.6-2.1,5.3
	c0,0.1-0.1,0.2-0.1,0.2c-2.7,5.5-6.5,10-12,12.6c-2.2,1-4.7,1.7-7.5,2c-1.4,0.2-2.8,0.2-4.4,0.2c-2.4-0.1-4.9-0.4-7.7-1
	c-18.2,27.1-56.6,25.6-61.4,25.3c-0.3,0-0.4,0-0.5,0c-1.6-0.2-2.7-0.4-6.3-1.3c-0.2,0-0.4-0.1-0.6-0.1c-0.6-0.1-1.3-0.4-2-0.6
	c1.6,2,3.3,4.2,5.1,6.1c7.2,7.9,16,15.3,26,21.1c5,2.9,10.3,5.4,15.7,7.4c2.7,1,5.5,1.9,8.3,2.6c7.2,1.9,14.2,2.9,21.2,3.1
	c35,1.2,65.9-18,85.9-52.8c3.5-6.1,6.7-12.6,9.6-19.7l19.9-55.5l32.8-91.2l9.2-25.6l17.3-48H392.9z"/>
<path class="st1" d="M390.7,134.6h-60.3l0.3,173.7c0,14.7-0.8,37.7-13.3,55.6c2.8,0.6,5.3,0.9,7.7,1c12.3,0.4,19.6-5.9,23.9-14.7
	c0-0.1,0.1-0.2,0.1-0.2c0.8-1.7,1.5-3.5,2.1-5.3c0.1-0.2,0.1-0.5,0.2-0.7c0.5-1.7,1-3.5,1.3-5.3l38.3-194.1l2-9.9H390.7z"/>
<path class="st2" d="M123.1,559.7c3.5,1.5,7.5,2.3,12.1,2.3c4.1,0,7.7-0.6,10.8-1.9c3-1.3,5.5-3.1,7.4-5.6c1.9-2.5,3-4.9,3.4-7.2
	c0.4-2.3,0.6-6.4,0.6-12.2v-51.1h-19.9v56.4c0,3.8-0.2,6.2-0.5,7.3c-0.4,1-1.2,1.5-2.4,1.5c-1.1,0-1.8-0.5-2.2-1.4
	c-0.4-0.9-0.5-3.1-0.5-6.4v-57.4h-19.9v45.3c0,8.6,0.2,14.3,0.5,17c0.3,2.7,1.3,5.3,3.1,7.7C116.9,556.2,119.6,558.2,123.1,559.7"/>
<polygon class="st2" points="181.5,483.8 164.9,483.8 164.9,560.3 181.5,560.3 181.5,525.5 191.9,560.3 209.3,560.3 209.3,483.8 
	192.7,483.8 192.7,518.3 "/>
<rect x="217.3" y="483.8" class="st2" width="19.9" height="76.5"/>
<path class="st2" d="M270.2,498c-1.2,11.4-2.2,24.5-3.3,39.3c-1-14.6-2.8-32.4-5.2-53.5h-21l11.5,76.5h30.2l10.1-76.5h-21L270.2,498
	z"/>
<polygon class="st2" points="329.1,499.1 329.1,483.8 295.9,483.8 295.9,560.3 330.4,560.3 330.4,545 315.8,545 315.8,528.2 
	328.2,528.2 328.2,513.6 315.8,513.6 315.8,499.1 "/>
<path class="st2" d="M380.6,560.3v-20.2c0-6.2-0.2-9.9-0.5-11.3c-0.3-1.4-1.2-2.9-2.5-4.5c-1.4-1.6-4-2.9-7.9-3.9
	c4.3-0.4,7.3-1.6,8.7-3.7c1.5-2,2.2-6,2.2-12c0-6.5-1.1-11.3-3.1-14.3c-2.1-3-4.8-4.8-8.1-5.6c-3.3-0.7-9.7-1.1-19.1-1.1h-14.1v76.5
	H356v-34.5c2.7,0,4.4,0.5,5.1,1.5c0.6,1,1,3.5,1,7.6v25.4H380.6z M360.7,513c-0.9,0.6-2.5,0.9-4.7,0.9v-17c2.3,0,3.9,0.4,4.8,1.1
	c0.9,0.8,1.3,2.3,1.3,4.8v4.2C362.1,510.4,361.6,512.4,360.7,513"/>
<path class="st2" d="M387.2,532.9v5c0,5.7,0.6,10.2,1.7,13.3c1.2,3.1,3.6,5.7,7.4,7.7c3.8,2,8.3,3,13.6,3c4.9,0,9.1-0.9,12.8-2.6
	c3.7-1.7,6.1-3.9,7.4-6.5c1.3-2.6,1.9-6.6,1.9-12.1c0-7.5-1.2-12.9-3.5-16.3c-2.3-3.4-7.9-7.7-16.7-12.9c-3.1-1.8-5-3.4-5.6-4.7
	c-0.7-1.3-1-3.2-1-5.8c0-2,0.3-3.5,0.9-4.4c0.6-1,1.5-1.5,2.7-1.5c1.1,0,1.9,0.4,2.4,1.1c0.5,0.7,0.7,2.4,0.7,5.1v5.7h18.5v-3
	c0-6.1-0.6-10.4-1.8-12.9c-1.2-2.5-3.6-4.6-7.2-6.3c-3.6-1.7-8-2.5-13.2-2.5c-4.7,0-8.8,0.8-12.1,2.3c-3.3,1.5-5.8,3.7-7.3,6.4
	c-1.5,2.7-2.2,7-2.2,12.9c0,4.1,0.5,7.4,1.6,10c1.1,2.6,2.4,4.7,4,6.1c1.6,1.5,4.9,3.9,9.8,7.1c4.9,3.2,8,5.6,9.3,6.9
	c1.2,1.4,1.8,4.3,1.8,8.8c0,2.1-0.3,3.6-1,4.6c-0.6,1-1.6,1.6-2.9,1.6c-1.3,0-2.2-0.4-2.8-1.2c-0.5-0.8-0.8-2.7-0.8-5.5v-9.3H387.2z
	"/>
<rect x="438.3" y="483.8" class="st2" width="19.9" height="76.5"/>
<path class="st2" d="M512.3,510.8c0-7.3-0.2-12.1-0.7-14.6c-0.4-2.5-1.6-4.7-3.3-6.7c-1.8-2-4.3-3.5-7.7-4.4
	c-3.4-0.9-9.9-1.3-19.5-1.3h-14.9v76.5h25.1c4.8,0,8.3-0.3,10.7-0.8c2.4-0.5,4.3-1.4,6-2.7c1.6-1.3,2.7-3.1,3.4-5.4
	c0.6-2.3,1-6.9,1-13.8V510.8z M492.4,536.1c0,5.1-0.3,8.2-1,9.4c-0.7,1.2-2.4,1.7-5.3,1.7v-50.3c2.2,0,3.7,0.2,4.4,0.7
	c0.8,0.5,1.3,1.2,1.5,2.2c0.2,1,0.3,3.2,0.3,6.7V536.1z"/>
<path class="st2" d="M554.1,483.8h-28.8l-10.2,76.5h20.6l1.2-13.8h7.1l1.1,13.8h20.3L554.1,483.8z M536.8,533
	c0.5-6.8,1.8-17.5,3.8-32.1c1,12.8,2,23.5,3,32.1H536.8z"/>
<path class="st2" d="M603.3,485.1c-3.4-0.9-9.9-1.3-19.5-1.3h-14.9v76.5H594c4.8,0,8.3-0.3,10.7-0.8c2.4-0.5,4.3-1.4,6-2.7
	c1.6-1.3,2.7-3.1,3.4-5.4c0.6-2.3,1-6.9,1-13.8v-26.8c0-7.3-0.2-12.1-0.7-14.6c-0.4-2.5-1.6-4.7-3.3-6.7
	C609.3,487.5,606.7,486,603.3,485.1 M595.1,536.1c0,5.1-0.3,8.2-1,9.4c-0.7,1.2-2.4,1.7-5.3,1.7v-50.3c2.2,0,3.7,0.2,4.4,0.7
	c0.8,0.5,1.3,1.2,1.5,2.2c0.2,1,0.3,3.2,0.3,6.7V536.1z"/>
<polygon class="st2" points="656.9,545 642.3,545 642.3,528.2 654.8,528.2 654.8,513.6 642.3,513.6 642.3,499.1 655.6,499.1 
	655.6,483.8 622.4,483.8 622.4,560.3 656.9,560.3 "/>
<path class="st1" d="M120.6,610.2c0,2.1-0.1,3.6-0.1,4.3c-0.1,0.7-0.4,1.4-1,1.9c-0.6,0.5-1.4,0.8-2.5,0.8c-0.4,0-1,0-1.9-0.1v9.8
	h7.3c3.2,0,5.6-0.2,7.3-0.7c1.6-0.5,2.9-1.4,3.8-2.7c0.9-1.3,1.5-2.7,1.6-4.3c0.1-1.6,0.2-5.2,0.2-10.8v-37.5h-14.6V610.2z"/>
<path class="st1" d="M171.2,575.5c-1.5-2-3.4-3.4-5.8-4.4c-2.4-1-5.1-1.5-8.1-1.5c-3.2,0-5.9,0.5-8.3,1.6c-2.4,1-4.3,2.5-5.7,4.5
	c-1.4,1.9-2.2,4.1-2.5,6.4c-0.3,2.3-0.4,6.3-0.4,12v9.6c0,5.8,0.1,9.8,0.4,12.1c0.3,2.3,1.2,4.4,2.6,6.4c1.5,2,3.4,3.4,5.8,4.4
	c2.4,1,5.1,1.5,8.1,1.5c3.2,0,5.9-0.5,8.3-1.6c2.4-1,4.3-2.5,5.7-4.5c1.4-1.9,2.2-4.1,2.5-6.4c0.3-2.3,0.4-6.3,0.4-12V594
	c0-5.8-0.1-9.8-0.4-12.1C173.5,579.6,172.6,577.5,171.2,575.5 M159.6,611c0,3.3-0.1,5.4-0.4,6.3c-0.3,0.9-0.9,1.3-1.9,1.3
	c-1,0-1.6-0.4-1.9-1.1c-0.3-0.8-0.4-2.8-0.4-6v-26.2c0-2.9,0.2-4.6,0.6-5.2c0.4-0.6,1-0.9,1.7-0.9c0.9,0,1.5,0.4,1.8,1.1
	c0.3,0.7,0.4,2.4,0.4,5V611z"/>
<path class="st1" d="M183.7,570.8l-7.4,56.1h15.1l0.9-10.1h5.2l0.8,10.1h14.9l-8.3-56.1H183.7z M192.1,606.9
	c0.4-5,1.3-12.8,2.8-23.5c0.7,9.4,1.5,17.2,2.2,23.5H192.1z"/>
<path class="st1" d="M240.7,626.4c-0.5-0.3-0.7-1.1-0.8-2.4c2.3-0.6,4.1-1.4,5.5-2.4c1.4-1.1,2.3-2.5,2.8-4.2
	c0.5-1.8,0.7-5.2,0.7-10.1V589c0-3.6-0.2-6.3-0.6-8.2c-0.4-1.8-1.2-3.6-2.5-5.3c-1.3-1.7-3.2-3.1-5.7-4.2c-2.5-1.1-5.5-1.7-8.7-1.7
	c-2.7,0-5.2,0.5-7.4,1.4c-2.2,0.9-4,2.2-5.4,4c-1.4,1.8-2.3,3.6-2.8,5.6c-0.5,2-0.7,4.9-0.7,8.7v17.3c0,5,0.4,8.8,1.1,11.3
	c0.8,2.5,2.3,4.6,4.7,6.3c2.4,1.6,5.2,2.5,8.5,2.6c0,2.1,0.2,3.6,0.6,4.3c0.4,0.8,1.1,1.4,2.2,1.8c1.1,0.4,2.9,0.6,5.6,0.6h11v-6.8
	h-5.1C242.2,626.9,241.1,626.7,240.7,626.4 M234.3,611c0,3.3-0.1,5.4-0.4,6.3c-0.3,0.9-0.9,1.3-1.9,1.3c-1,0-1.6-0.4-1.9-1.1
	c-0.3-0.8-0.4-2.8-0.4-6v-26.2c0-2.9,0.2-4.6,0.6-5.2c0.4-0.6,1-0.9,1.7-0.9c0.9,0,1.5,0.4,1.8,1.1c0.3,0.7,0.4,2.4,0.4,5V611z"/>
<path class="st1" d="M272.9,612.1c0,2.8-0.1,4.6-0.4,5.3c-0.3,0.7-0.9,1.1-1.8,1.1c-0.8,0-1.3-0.3-1.6-1c-0.3-0.7-0.4-2.2-0.4-4.7
	v-42h-14.6V604c0,6.3,0.1,10.5,0.3,12.4c0.2,2,1,3.8,2.3,5.6c1.3,1.8,3.2,3.2,5.7,4.3c2.6,1.1,5.5,1.7,8.9,1.7c3,0,5.6-0.5,7.9-1.4
	c2.2-0.9,4-2.3,5.4-4.1c1.4-1.8,2.2-3.6,2.5-5.3c0.3-1.7,0.4-4.7,0.4-8.9v-37.5h-14.6V612.1z"/>
<rect x="293.1" y="570.8" class="st1" width="14.6" height="56.1"/>
<path class="st1" d="M336.2,597l-2.1-14.3c-0.6-4.6-1.2-8.5-1.7-11.9h-18.9v56.1h12.7l0-37l5.3,37h9l5.1-37.8l0,37.8h12.7v-56.1h-19
	L336.2,597z"/>
<path class="st1" d="M404.1,572.1c-2.8-1.7-6.3-2.5-10.6-2.5c-3.2,0-6,0.5-8.4,1.6c-2.4,1.1-4.3,2.5-5.7,4.4
	c-1.4,1.9-2.2,3.8-2.5,5.8c-0.3,2-0.4,5-0.4,9.1V607c0,5.5,0.4,9.6,1.4,12.3c0.9,2.7,2.7,4.9,5.5,6.4c2.8,1.5,6.3,2.3,10.6,2.3
	c4.1,0,7.6-0.9,10.4-2.7c2.8-1.8,4.6-4,5.4-6.4c0.8-2.4,1.2-6.5,1.2-12.3v-2.2h-14.6v7c0,3.1-0.2,5-0.5,5.9
	c-0.3,0.8-1.1,1.3-2.1,1.3c-1.1,0-1.9-0.4-2.2-1.3c-0.3-0.8-0.5-2.6-0.5-5.3v-26c0-2.8,0.2-4.7,0.5-5.5c0.3-0.9,1.1-1.3,2.3-1.3
	c1.1,0,1.7,0.3,2.1,1c0.3,0.7,0.5,2.5,0.5,5.3v9.7h14.6v-5.3c0-5.2-0.4-9.1-1.3-11.6C408.7,575.9,406.9,573.8,404.1,572.1"/>
<polygon class="st1" points="435.1,590.9 430.7,590.9 430.7,570.8 416.2,570.8 416.2,626.9 430.7,626.9 430.7,603.3 435.1,603.3 
	435.1,626.9 449.7,626.9 449.7,570.8 435.1,570.8 "/>
<rect x="455.5" y="570.8" class="st1" width="14.6" height="56.1"/>
<path class="st1" d="M493.3,591.1c-2.3-1.3-3.6-2.5-4.1-3.4c-0.5-0.9-0.8-2.4-0.8-4.2c0-1.5,0.2-2.5,0.7-3.3c0.4-0.7,1.1-1.1,2-1.1
	c0.8,0,1.4,0.3,1.7,0.8c0.3,0.5,0.5,1.8,0.5,3.7v4.2h13.5v-2.2c0-4.5-0.4-7.6-1.3-9.5c-0.9-1.9-2.6-3.4-5.3-4.6
	c-2.7-1.2-5.9-1.8-9.7-1.8c-3.5,0-6.4,0.6-8.9,1.7c-2.4,1.1-4.2,2.7-5.3,4.7c-1.1,2-1.6,5.1-1.6,9.4c0,3,0.4,5.4,1.2,7.3
	c0.8,1.9,1.7,3.4,2.9,4.5c1.2,1.1,3.6,2.8,7.2,5.2c3.6,2.4,5.9,4.1,6.8,5.1c0.9,1,1.4,3.2,1.4,6.5c0,1.5-0.2,2.6-0.7,3.4
	c-0.5,0.8-1.2,1.1-2.2,1.1c-1,0-1.6-0.3-2-0.9c-0.4-0.6-0.6-1.9-0.6-4v-6.8h-13.5v3.7c0,4.2,0.4,7.4,1.3,9.7
	c0.8,2.3,2.7,4.2,5.4,5.6c2.8,1.5,6.1,2.2,10,2.2c3.6,0,6.7-0.6,9.3-1.9c2.7-1.3,4.5-2.9,5.4-4.8c0.9-1.9,1.4-4.8,1.4-8.8
	c0-5.5-0.8-9.5-2.5-11.9C503.8,598.1,499.8,595,493.3,591.1"/>
<path class="st1" d="M529.9,591.1c-2.3-1.3-3.6-2.5-4.1-3.4c-0.5-0.9-0.8-2.4-0.8-4.2c0-1.5,0.2-2.5,0.7-3.3c0.5-0.7,1.1-1.1,2-1.1
	c0.8,0,1.4,0.3,1.7,0.8c0.3,0.5,0.5,1.8,0.5,3.7v4.2h13.5v-2.2c0-4.5-0.4-7.6-1.3-9.5c-0.9-1.9-2.6-3.4-5.3-4.6
	c-2.7-1.2-5.9-1.8-9.7-1.8c-3.5,0-6.4,0.6-8.9,1.7s-4.2,2.7-5.3,4.7c-1.1,2-1.6,5.1-1.6,9.4c0,3,0.4,5.4,1.2,7.3
	c0.8,1.9,1.7,3.4,2.9,4.5c1.2,1.1,3.6,2.8,7.2,5.2c3.6,2.4,5.9,4.1,6.8,5.1c0.9,1,1.4,3.2,1.4,6.5c0,1.5-0.2,2.6-0.7,3.4
	c-0.5,0.8-1.2,1.1-2.2,1.1c-1,0-1.6-0.3-2-0.9c-0.4-0.6-0.6-1.9-0.6-4v-6.8h-13.5v3.7c0,4.2,0.4,7.4,1.3,9.7
	c0.8,2.3,2.7,4.2,5.4,5.6c2.8,1.5,6.1,2.2,10,2.2c3.6,0,6.7-0.6,9.3-1.9c2.7-1.3,4.5-2.9,5.4-4.8c0.9-1.9,1.4-4.8,1.4-8.8
	c0-5.5-0.8-9.5-2.5-11.9C540.5,598.1,536.4,595,529.9,591.1"/>
<path class="st1" d="M553.4,570.8l-7.4,56.1h15.1l0.9-10.1h5.2l0.8,10.1h14.9l-8.3-56.1H553.4z M561.7,606.9
	c0.4-5,1.3-12.8,2.8-23.5c0.7,9.4,1.5,17.2,2.2,23.5H561.7z"/>
<polygon class="st1" points="605.7,596 597.5,570.8 585.3,570.8 585.3,626.9 597.5,626.9 597.5,601.4 605.1,626.9 617.8,626.9 
	617.8,570.8 605.7,570.8 "/>
<path class="st1" d="M656.6,581.9c-0.3-2.3-1.1-4.4-2.6-6.4c-1.5-2-3.4-3.4-5.8-4.4c-2.4-1-5.1-1.5-8.1-1.5c-3.2,0-5.9,0.5-8.3,1.6
	c-2.4,1-4.3,2.5-5.7,4.5c-1.4,1.9-2.2,4.1-2.5,6.4c-0.3,2.3-0.4,6.3-0.4,12v9.6c0,5.8,0.1,9.8,0.4,12.1c0.3,2.3,1.2,4.4,2.6,6.4
	c1.5,2,3.4,3.4,5.8,4.4c2.4,1,5.1,1.5,8.1,1.5c3.2,0,5.9-0.5,8.3-1.6c2.4-1,4.3-2.5,5.7-4.5c1.4-1.9,2.2-4.1,2.5-6.4
	c0.3-2.3,0.4-6.3,0.4-12V594C657,588.3,656.9,584.2,656.6,581.9 M642.4,611c0,3.3-0.1,5.4-0.4,6.3c-0.3,0.9-0.9,1.3-1.9,1.3
	c-1,0-1.6-0.4-1.9-1.1c-0.3-0.8-0.4-2.8-0.4-6v-26.2c0-2.9,0.2-4.6,0.6-5.2c0.4-0.6,1-0.9,1.8-0.9c0.9,0,1.5,0.4,1.8,1.1
	c0.3,0.7,0.4,2.4,0.4,5V611z"/>
<path class="st1" d="M301.8,424.4c-2.8-0.7-5.6-1.6-8.3-2.6c-5.5-2-10.7-4.5-15.7-7.4c-10-5.8-18.9-13.2-26-21.1c-1.8-2-3.5-4-5-6
	c-0.1-0.1-0.1-0.1-0.1-0.1c-41.8-12-43.2-56.2-43.2-79.3l4.6-173.2H148v180.5c0,76.4,52.6,122.3,122.4,122.3c19,0,36.8-3.4,52.5-9.9
	C316.1,427.2,309,426.2,301.8,424.4"/>
</svg>
